<?xml version="1.0" encoding="utf-8"?>
<svg xmlns="http://www.w3.org/2000/svg" viewBox="-1303.1009 -217.1794 3303.0991 773.261" width="3303.1px" height="773.261px" preserveAspectRatio="none"><g id="LOGO-OK-TR2" transform="matrix(1, 0, 0, 1, -1406.075927734375, -1683.967529296875)"><g id="DavidDíazDissenyGràfic-TR2"><path d="M3257.15,2203.89l14.849,-0l-0,-77.215l17.469,-0l0,-13.102l-17.469,-0l-0,-12.579c-0,-7.861 4.193,-10.132 11.355,-10.132c2.62,0 5.765,0.35 8.385,1.223l0,-12.927c-2.795,-0.874 -6.813,-1.398 -9.608,-1.398c-16.246,0 -24.981,7.687 -24.981,22.361l-0,13.452l-15.199,-0l0,13.102l15.199,-0l-0,77.215Z" style="fill:#fff;fill-rule:nonzero;"/><path d="M3299.03,2203.89l14.849,-0l0,-90.317l-14.849,-0l0,90.317Zm14.849,-124.732l-14.849,-0l0,18.168l14.849,-0l0,-18.168Z" style="fill:#fff;fill-rule:nonzero;"/><path d="M1734.89,2203.89l42.8,-0c41.577,-0 59.92,-23.584 59.92,-65.336c0,-40.18 -21.487,-59.396 -59.92,-59.396l-42.8,-0l-0,124.732Zm16.596,-110.757l27.951,0c30.572,0 41.577,17.994 41.577,47.692c0,45.945 -30.571,49.089 -41.926,49.089l-27.602,0l-0,-96.781Z" style="fill:#fff;fill-rule:nonzero;"/><path d="M1902.99,2172.45c-0,8.21 -8.036,20.439 -27.602,20.439c-9.084,-0 -17.47,-3.494 -17.47,-13.277c0,-11.006 8.386,-14.5 18.169,-16.246c9.957,-1.747 21.138,-1.922 26.903,-6.115l-0,15.199Zm24.108,19.565c-1.922,0.699 -3.32,0.874 -4.542,0.874c-4.717,-0 -4.717,-3.145 -4.717,-10.132l-0,-46.469c-0,-21.138 -17.644,-24.807 -33.891,-24.807c-20.09,0 -37.385,7.861 -38.258,30.222l14.849,0c0.699,-13.276 9.957,-17.12 22.536,-17.12c9.433,0 20.089,2.097 20.089,15.024c0,11.181 -13.975,10.132 -30.396,13.277c-15.374,2.97 -30.572,7.337 -30.572,27.776c-0,17.994 13.451,25.331 29.873,25.331c12.578,0 23.584,-4.367 31.794,-13.976c0,9.783 4.892,13.976 12.578,13.976c4.717,0 8.036,-0.873 10.657,-2.446l-0,-11.53Z" style="fill:#fff;fill-rule:nonzero;"/><path d="M2002.52,2113.57l-15.548,-0l-24.632,75.293l-0.349,-0l-25.331,-75.293l-16.596,-0l33.542,90.317l15.897,-0l33.017,-90.317Z" style="fill:#fff;fill-rule:nonzero;"/><path d="M2008.94,2203.89l14.849,-0l0,-90.317l-14.849,-0l0,90.317Zm14.849,-124.732l-14.849,-0l0,18.168l14.849,-0l0,-18.168Z" style="fill:#fff;fill-rule:nonzero;"/><path d="M2119.47,2079.16l-14.849,-0l-0,46.468l-0.35,0c-6.638,-10.656 -19.915,-14.15 -29.174,-14.15c-27.602,0 -41.228,21.488 -41.228,46.993c0,25.506 13.801,47.517 41.577,47.517c12.404,0 23.934,-4.367 28.825,-14.325l0.35,0l-0,12.229l14.849,-0l-0,-124.732Zm-69.878,80.359c-0,-17.644 6.813,-34.939 27.077,-34.939c20.44,0 28.476,16.422 28.476,34.24c-0,16.946 -7.687,34.066 -27.602,34.066c-19.217,-0 -27.951,-16.421 -27.951,-33.367Z" style="fill:#fff;fill-rule:nonzero;"/><path d="M2136.07,2203.89l42.8,-0c41.577,-0 59.92,-23.584 59.92,-65.336c0,-40.18 -21.487,-59.396 -59.92,-59.396l-42.8,-0l-0,124.732Zm16.596,-110.757l27.951,0c30.571,0 41.577,17.994 41.577,47.692c0,45.945 -30.571,49.089 -41.927,49.089l-27.601,0l-0,-96.781Z" style="fill:#fff;fill-rule:nonzero;"/><path d="M2264.25,2203.89l-0,-90.317l-14.849,-0l-0,90.317l14.849,-0Zm-18.168,-102.721l11.18,0l22.885,-24.981l-19.042,-0l-15.023,24.981Z" style="fill:#fff;fill-rule:nonzero;"/><path d="M2330.54,2172.45c-0,8.21 -8.036,20.439 -27.602,20.439c-9.084,-0 -17.469,-3.494 -17.469,-13.277c-0,-11.006 8.385,-14.5 18.168,-16.246c9.957,-1.747 21.138,-1.922 26.903,-6.115l-0,15.199Zm24.108,19.565c-1.922,0.699 -3.319,0.874 -4.542,0.874c-4.717,-0 -4.717,-3.145 -4.717,-10.132l-0,-46.469c-0,-21.138 -17.644,-24.807 -33.891,-24.807c-20.09,0 -37.385,7.861 -38.258,30.222l14.849,0c0.699,-13.276 9.958,-17.12 22.536,-17.12c9.433,0 20.09,2.097 20.09,15.024c-0,11.181 -13.976,10.132 -30.397,13.277c-15.373,2.97 -30.572,7.337 -30.572,27.776c0,17.994 13.452,25.331 29.873,25.331c12.578,0 23.584,-4.367 31.794,-13.976c0,9.783 4.892,13.976 12.578,13.976c4.717,0 8.036,-0.873 10.657,-2.446l-0,-11.53Z" style="fill:#fff;fill-rule:nonzero;"/><path d="M2357.62,2203.89l76.166,-0l0,-13.102l-57.649,-0l55.204,-67.083l-0,-10.132l-70.228,-0l0,13.102l51.011,-0l-54.504,65.86l-0,11.355Z" style="fill:#fff;fill-rule:nonzero;"/><path d="M2443.18,2203.89l42.801,-0c41.577,-0 59.92,-23.584 59.92,-65.336c-0,-40.18 -21.487,-59.396 -59.92,-59.396l-42.801,-0l0,124.732Zm16.596,-110.757l27.952,0c30.571,0 41.577,17.994 41.577,47.692c-0,45.945 -30.572,49.089 -41.927,49.089l-27.602,0l0,-96.781Z" style="fill:#fff;fill-rule:nonzero;"/><path d="M2553.89,2203.89l14.849,-0l0,-90.317l-14.849,-0l0,90.317Zm14.849,-124.732l-14.849,-0l0,18.168l14.849,-0l0,-18.168Z" style="fill:#fff;fill-rule:nonzero;"/><path d="M2577.78,2175.42c0.873,22.361 17.994,30.572 38.258,30.572c18.343,0 38.433,-6.988 38.433,-28.475c-0,-17.47 -14.674,-22.361 -29.523,-25.68c-13.801,-3.32 -29.524,-5.066 -29.524,-15.723c0,-9.084 10.307,-11.53 19.217,-11.53c9.782,0 19.915,3.669 20.963,15.199l14.849,-0c-1.223,-22.012 -17.12,-28.301 -37.035,-28.301c-15.723,0 -33.716,7.512 -33.716,25.68c-0,17.295 14.849,22.187 29.523,25.506c14.849,3.319 29.523,5.241 29.523,16.77c0,11.356 -12.578,13.452 -21.836,13.452c-12.229,-0 -23.759,-4.193 -24.283,-17.47l-14.849,0Z" style="fill:#fff;fill-rule:nonzero;"/><path d="M2657.04,2175.42c0.873,22.361 17.993,30.572 38.258,30.572c18.343,0 38.433,-6.988 38.433,-28.475c-0,-17.47 -14.675,-22.361 -29.524,-25.68c-13.8,-3.32 -29.523,-5.066 -29.523,-15.723c0,-9.084 10.307,-11.53 19.216,-11.53c9.783,0 19.916,3.669 20.964,15.199l14.849,-0c-1.223,-22.012 -17.12,-28.301 -37.035,-28.301c-15.723,0 -33.717,7.512 -33.717,25.68c0,17.295 14.85,22.187 29.524,25.506c14.849,3.319 29.523,5.241 29.523,16.77c0,11.356 -12.578,13.452 -21.837,13.452c-12.228,-0 -23.758,-4.193 -24.282,-17.47l-14.849,0Z" style="fill:#fff;fill-rule:nonzero;"/><path d="M2804.44,2175.24c-2.621,11.704 -11.181,17.644 -23.409,17.644c-19.741,-0 -28.65,-13.976 -28.126,-29.698l67.607,-0c0.873,-21.837 -8.91,-51.71 -40.879,-51.71c-24.632,0 -42.451,19.915 -42.451,46.993c0.874,27.602 14.5,47.517 43.324,47.517c20.265,0 34.59,-10.831 38.608,-30.746l-14.674,-0Zm-51.535,-25.156c1.048,-13.801 10.307,-25.506 25.855,-25.506c14.674,0 25.33,11.355 26.029,25.506l-51.884,-0Z" style="fill:#fff;fill-rule:nonzero;"/><path d="M2827.8,2203.89l14.849,-0l0,-51.011c0,-16.247 8.735,-28.301 26.729,-28.301c11.355,0 18.343,7.163 18.343,18.169l-0,61.143l14.849,-0l-0,-59.396c-0,-19.392 -7.338,-33.018 -31.096,-33.018c-12.928,0 -23.06,5.241 -29.349,16.421l-0.349,0l-0,-14.324l-13.976,-0l0,90.317Z" style="fill:#fff;fill-rule:nonzero;"/><path d="M2987.03,2113.57l-15.723,-0l-25.331,73.895l-0.349,0l-26.379,-73.895l-16.771,-0l35.813,89.793l-6.114,15.373c-2.796,5.241 -6.115,8.21 -12.229,8.21c-2.97,0 -5.94,-1.222 -8.735,-2.096l0,13.626c3.319,1.223 6.813,1.573 10.307,1.573c13.277,-0 19.391,-6.464 26.204,-24.108l39.307,-102.371Z" style="fill:#fff;fill-rule:nonzero;"/><path d="M3090.8,2203.89l10.482,-0l0,-65.686l-54.679,0l-0,13.976l39.83,0c1.048,22.71 -14.325,40.704 -40.005,40.704c-27.777,-0 -42.8,-23.759 -42.8,-49.788c-0,-26.728 12.578,-52.933 42.8,-52.933c18.518,0 33.716,8.56 37.035,27.428l16.596,-0c-4.716,-29.175 -26.379,-41.403 -53.631,-41.403c-39.481,-0 -59.396,31.445 -59.396,67.781c-0,32.494 22.186,62.891 59.396,62.891c14.674,-0 30.397,-5.416 40.005,-18.518l4.367,15.548Z" style="fill:#fff;fill-rule:nonzero;"/><path d="M3114.69,2203.89l14.849,-0l0,-40.18c0,-22.885 8.735,-36.511 32.668,-36.511l0,-15.723c-16.072,-0.524 -26.029,6.639 -33.192,21.138l-0.349,0l-0,-19.041l-13.976,-0l0,90.317Z" style="fill:#fff;fill-rule:nonzero;"/><path d="M3221.21,2172.45c0,8.21 -8.036,20.439 -27.601,20.439c-9.085,-0 -17.47,-3.494 -17.47,-13.277c0,-11.006 8.385,-14.5 18.168,-16.246c9.958,-1.747 21.138,-1.922 26.903,-6.115l0,15.199Zm24.108,19.565c-1.921,0.699 -3.319,0.874 -4.542,0.874c-4.717,-0 -4.717,-3.145 -4.717,-10.132l0,-46.469c0,-21.138 -17.644,-24.807 -33.89,-24.807c-20.09,0 -37.385,7.861 -38.259,30.222l14.849,0c0.699,-13.276 9.958,-17.12 22.536,-17.12c9.434,0 20.09,2.097 20.09,15.024c-0,11.181 -13.976,10.132 -30.397,13.277c-15.373,2.97 -30.571,7.337 -30.571,27.776c-0,17.994 13.451,25.331 29.872,25.331c12.578,0 23.584,-4.367 31.795,-13.976c-0,9.783 4.891,13.976 12.578,13.976c4.717,0 8.036,-0.873 10.656,-2.446l0,-11.53Zm-44.722,-90.841l11.181,0l-15.024,-24.981l-19.042,-0l22.885,24.981Z" style="fill:#fff;fill-rule:nonzero;"/><path d="M3405.55,2142.57c-2.096,-21.488 -18.517,-31.096 -38.957,-31.096c-28.65,0 -42.625,21.313 -42.625,48.391c-0,26.903 14.674,46.119 42.276,46.119c22.71,0 36.511,-13.102 39.83,-35.114l-15.198,0c-1.922,13.627 -10.482,22.012 -24.807,22.012c-18.867,-0 -26.379,-16.421 -26.379,-33.017c0,-18.343 6.639,-35.289 28.126,-35.289c12.229,0 20.09,6.639 22.361,17.994l15.373,-0Z" style="fill:#fff;fill-rule:nonzero;"/></g><g id="TRESDEGÉ-TR2"><path d="M227.643,2035.9l137.136,0l-0,-330.995l124.669,0l-0,-114.072l-386.473,0l-0,114.072l124.668,0l0,330.995Z" style="fill:#fff;fill-rule:nonzero;"/><path d="M508.771,2035.9l137.136,0l-0,-155.212l72.931,-0c54.231,-0 57.971,44.257 61.711,86.645c1.87,23.063 4.363,46.127 11.22,68.567l137.136,0c-12.467,-20.57 -13.09,-73.554 -14.961,-95.371c-4.986,-55.478 -28.05,-96.618 -65.451,-110.955c45.504,-16.83 66.698,-65.451 66.698,-111.579c0,-84.151 -67.321,-127.162 -145.239,-127.162l-261.181,0l0,445.067Zm137.136,-339.098l64.204,-0c52.361,-0 67.945,16.207 67.945,44.257c-0,39.894 -34.908,44.257 -60.465,44.257l-71.684,0l-0,-88.514Z" style="fill:#fff;fill-rule:nonzero;"/><path d="M939.502,2035.9l375.252,0l0,-114.071l-238.117,-0l0,-55.478l210.067,0l-0,-105.968l-210.067,-0l0,-55.478l231.261,0l-0,-114.072l-368.396,0l-0,445.067Z" style="fill:#fff;fill-rule:nonzero;"/><path d="M1319.12,1886.3c1.246,142.122 145.239,160.199 195.73,160.199c99.111,0 205.703,-37.4 205.703,-153.342c-0,-81.658 -62.335,-110.955 -125.292,-128.409c-62.958,-17.454 -126.539,-24.31 -129.032,-56.101c-0,-24.934 30.544,-29.92 49.244,-29.92c13.713,-0 29.297,3.116 40.517,11.22c11.22,7.48 18.7,18.7 16.207,35.53l129.656,0c-3.741,-108.461 -89.139,-145.239 -185.757,-145.239c-91.631,0 -179.523,44.258 -179.523,147.11c0,89.761 80.412,109.085 150.849,129.032c76.672,21.817 95.995,28.05 95.995,51.114c0,33.037 -34.284,40.517 -56.724,40.517c-25.557,0 -55.478,-5.61 -65.451,-32.414c-3.117,-8.103 -4.987,-18.077 -4.987,-29.297l-137.135,0Z" style="fill:#fff;fill-rule:nonzero;"/><path d="M1734.89,2035.9l198.223,0c155.212,0 227.52,-86.644 227.52,-223.156c0,-112.202 -52.361,-221.911 -200.716,-221.911l-225.027,0l-0,445.067Zm137.135,-330.995l43.634,0c99.112,0 107.839,77.918 107.839,105.969c-0,41.764 -12.467,110.955 -97.865,110.955l-53.608,-0l0,-216.924Z" style="fill:#fff;fill-rule:nonzero;"/><path d="M2182.45,2035.9l375.253,0l0,-114.071l-238.117,-0l-0,-55.478l210.067,0l-0,-105.968l-210.067,-0l-0,-55.478l231.26,0l0,-114.072l-368.396,0l0,445.067Z" style="fill:#fff;fill-rule:nonzero;"/><path d="M2907.4,2035.9l86.644,0l0,-244.973l-182.016,-0l0,95.371l60.464,0c-6.856,33.037 -39.27,49.244 -71.061,49.244c-83.528,0 -100.358,-72.931 -100.358,-114.695c-0,-30.544 -3.117,-129.655 91.008,-129.655c32.414,-0 59.841,23.063 64.828,55.477l131.525,0c-19.947,-104.722 -91.631,-166.433 -205.08,-166.433c-100.358,0 -219.417,67.945 -219.417,237.494c0,126.539 81.035,228.767 212.561,228.767c48.62,0 95.994,-16.83 126.538,-56.101l4.364,45.504Z" style="fill:#fff;fill-rule:nonzero;"/><path d="M3030.82,2035.9l375.252,0l0,-114.071l-238.117,-0l0,-55.478l210.067,0l-0,-105.968l-210.067,-0l0,-55.478l231.261,0l-0,-114.072l-368.396,0l-0,445.067Zm311.671,-569.112l-130.278,-0l-61.711,92.878l84.774,0l107.215,-92.878Z" style="fill:#fff;fill-rule:nonzero;"/></g></g></svg>