<?xml version="1.0" encoding="utf-8"?>
<svg xmlns="http://www.w3.org/2000/svg" viewBox="-1549.614 -609.3 3370.741 781.215" xmlns:bx="https://boxy-svg.com" width="3370.741px" height="781.215px"><defs><bx:export><bx:file format="svg" path="logo1.svg" excluded="true"/><bx:file format="svg" excluded="true"/><bx:file format="svg" path="Untitled 2.svg" excluded="true"/><bx:file format="svg" path="LogoLletres.svg"/></bx:export></defs><g id="LOGO-OK-TR1" transform="matrix(1, 0, 0, 1, -1614.747681, -3161.831299)"><g id="TRESDEGÉ-TR1"><path d="M227.643,3129l137.136,0l-0,-330.995l124.669,-0l-0,-114.072l-386.473,-0l-0,114.072l124.668,-0l0,330.995Z" style="fill:#1d1d1b;fill-rule:nonzero;"/><path d="M508.771,3129l137.136,0l-0,-155.212l72.931,-0c54.231,-0 57.971,44.257 61.711,86.644c1.87,23.064 4.363,46.128 11.22,68.568l137.136,0c-12.467,-20.57 -13.09,-73.554 -14.961,-95.371c-4.986,-55.478 -28.05,-96.619 -65.451,-110.955c45.504,-16.831 66.698,-65.452 66.698,-111.579c0,-84.151 -67.321,-127.162 -145.239,-127.162l-261.181,-0l0,445.067Zm137.136,-339.099l64.204,0c52.361,0 67.945,16.207 67.945,44.258c-0,39.894 -34.908,44.257 -60.465,44.257l-71.684,0l-0,-88.515Z" style="fill:#1d1d1b;fill-rule:nonzero;"/><path d="M939.502,3129l375.252,0l0,-114.072l-238.117,0l0,-55.477l210.067,-0l-0,-105.969l-210.067,0l0,-55.477l231.261,-0l-0,-114.072l-368.396,-0l-0,445.067Z" style="fill:#1d1d1b;fill-rule:nonzero;"/><path d="M1319.12,2979.4c1.246,142.122 145.239,160.199 195.73,160.199c99.111,0 205.703,-37.401 205.703,-153.342c-0,-81.658 -62.335,-110.956 -125.292,-128.409c-62.958,-17.454 -126.539,-24.311 -129.032,-56.101c-0,-24.934 30.544,-29.921 49.244,-29.921c13.713,0 29.297,3.117 40.517,11.221c11.22,7.48 18.7,18.7 16.207,35.53l129.656,0c-3.741,-108.462 -89.139,-145.239 -185.757,-145.239c-91.631,0 -179.523,44.258 -179.523,147.109c0,89.762 80.412,109.085 150.849,129.032c76.672,21.817 95.995,28.051 95.995,51.114c0,33.038 -34.284,40.518 -56.724,40.518c-25.557,-0 -55.478,-5.61 -65.451,-32.414c-3.117,-8.104 -4.987,-18.077 -4.987,-29.297l-137.135,-0Z" style="fill:#1d1d1b;fill-rule:nonzero;"/><path d="M1734.89,3129l198.223,0c155.212,0 227.52,-86.645 227.52,-223.157c0,-112.202 -52.361,-221.91 -200.716,-221.91l-225.027,-0l-0,445.067Zm137.135,-330.995l43.634,-0c99.112,-0 107.839,77.918 107.839,105.968c-0,41.764 -12.467,110.955 -97.865,110.955l-53.608,0l0,-216.923Z" style="fill:#1d1d1b;fill-rule:nonzero;"/><path d="M2182.45,3129l375.253,0l0,-114.072l-238.117,0l-0,-55.477l210.067,-0l-0,-105.969l-210.067,0l-0,-55.477l231.26,-0l0,-114.072l-368.396,-0l0,445.067Z" style="fill:#1d1d1b;fill-rule:nonzero;"/><path d="M2907.4,3129l86.644,0l0,-244.974l-182.016,0l0,95.372l60.464,-0c-6.856,33.037 -39.27,49.244 -71.061,49.244c-83.528,-0 -100.358,-72.931 -100.358,-114.695c-0,-30.544 -3.117,-129.656 91.008,-129.656c32.414,0 59.841,23.064 64.828,55.478l131.525,-0c-19.947,-104.722 -91.631,-166.433 -205.08,-166.433c-100.358,0 -219.417,67.945 -219.417,237.494c0,126.539 81.035,228.767 212.561,228.767c48.62,0 95.994,-16.83 126.538,-56.101l4.364,45.504Z" style="fill:#1d1d1b;fill-rule:nonzero;"/><path d="M3030.82,3129l375.252,0l0,-114.072l-238.117,0l0,-55.477l210.067,-0l-0,-105.969l-210.067,0l0,-55.477l231.261,-0l-0,-114.072l-368.396,-0l-0,445.067Zm311.671,-569.112l-130.278,-0l-61.711,92.878l84.774,-0l107.215,-92.878Z" style="fill:#1d1d1b;fill-rule:nonzero;"/></g></g></svg>